<svg xmlns="http://www.w3.org/2000/svg" width="224" height="58" fill="none" viewBox="0 0 224 58"><g id="Mailchimp" fill="#121212"><path d="M42.733 27.25C43.143 27.25 43.554 27.25 43.965 27.25 44.226 26.714 44.226 25.927 43.965 25.033 43.703 23.709 43.293 22.815 42.471 22.922 41.65 23.065 41.65 24.103 41.911 25.426 42.023 26.213 42.322 26.857 42.733 27.25ZM35.491 28.431C36.051 28.681 36.462 28.824 36.574 28.681 36.723 28.538 36.574 28.431 36.424 28.145 36.163 27.608 35.454 27.215 34.931 26.964 33.55 26.428 32.057 26.571 30.825 27.501 30.414 27.751 30.004 28.145 30.153 28.431 30.153 28.574 30.302 28.574 30.414 28.574 30.676 28.574 31.907 28.037 33.289 27.93 34.11 27.894 34.931 28.18 35.491 28.431ZM34.259 29.075C33.438 29.218 33.027 29.468 32.766 29.718 32.505 29.969 32.356 30.112 32.356 30.255V30.398H32.505C32.654 30.398 33.065 30.255 33.065 30.255 34.147 29.861 34.857 29.861 35.528 30.005 35.939 30.005 36.088 30.148 36.2 30.005 36.2 30.005 36.2 29.861 36.2 29.754 36.163 29.361 35.342 28.967 34.259 29.075Z"/><path d="M34.67 30.005C34.931 29.468 34.931 28.288 34.67 27.393 34.409 26.07 33.998 25.283 33.028 25.283 32.206 25.426 32.206 26.463 32.468 27.894 32.617 28.824 33.028 29.325 33.14 29.718 33.849 30.791 34.26 30.505 34.67 30.005ZM40.269 31.435C40.829 31.686 41.352 31.578 41.65 31.185 41.8 30.791 41.501 30.255 40.978 30.005 40.418 29.754 39.896 29.861 39.597 30.255 39.299 30.648 39.709 31.185 40.269 31.435ZM43.666 28.574C43.255 28.574 42.845 28.967 42.845 29.611 42.845 30.148 43.106 30.648 43.666 30.648 44.077 30.648 44.487 30.255 44.487 29.611 44.375 29.075 44.077 28.574 43.666 28.574ZM14.736 38.768C14.587 38.625 14.475 38.625 14.326 38.768 14.176 38.768 14.064 38.768 13.915 38.768 13.654 38.768 13.355 38.625 13.243 38.374 13.131 38.124 13.094 37.731 13.243 37.194L13.393 36.944C13.803 36.157 14.363 34.976 13.654 33.796 13.094 32.866 12.422 32.365 11.451 32.222 10.481 32.079 9.548 32.472 8.988 33.152 8.017 34.189 7.905 35.513 8.017 36.014 8.017 36.157 8.166 36.264 8.278 36.264 8.428 36.264 8.689 36.121 8.838 35.727V35.584C8.838 35.334 8.988 35.048 9.249 34.654 9.51 34.261 9.921 34.011 10.332 34.011 10.742 33.868 11.302 34.011 11.713 34.261 12.385 34.654 12.683 35.441 12.385 36.228 11.974 36.622 11.825 37.266 11.825 37.945 11.974 39.126 12.795 39.662 13.467 39.769 14.139 39.769 14.699 39.376 14.699 39.126 14.848 38.911 14.736 38.911 14.736 38.768Z"/><path d="M54.454 36.55C54.454 36.407 54.305 35.906 54.043 35.119L53.483 33.939C54.454 32.616 54.454 31.328 54.305 30.684 54.155 29.897 53.745 29.11 53.073 28.323 52.401 27.536 50.758 26.75 48.705 26.213L47.623 25.963C47.623 25.963 47.623 23.459 47.474 22.422 47.474 21.635 47.324 20.454 46.914 19.274 46.503 17.7 45.682 16.269 44.599 15.339 47.324 12.585 49.116 9.438 49.116 6.826 49.116 1.855 42.695.281 34.633 3.428L32.99 4.072C32.99 4.072 30.004 1.211 29.854 1.211 21.008-6.372-7.25 23.852 1.746 31.185L3.65 32.759C3.09 34.082 2.978 35.513 3.09 37.087 3.351 39.054 4.471 41.021 6.076 42.595 7.719 44.026 9.884 44.956 12.086 44.956 15.632 52.825 23.695 57.511 33.102 57.797 43.218 58.047 51.804 53.469 55.35 45.349 55.611 44.813 56.582 42.202 56.582 39.841 56.806 37.444 55.424 36.55 54.454 36.55ZM12.945 42.702C12.683 42.702 12.273 42.845 11.974 42.702 8.988 42.559 5.554 39.948 5.292 36.801 5.031 33.403 6.785 30.791 10.07 30.112 10.481 29.969 10.892 29.969 11.452 29.969 13.243 30.112 15.968 31.4 16.64 35.191 17.163 38.768 16.379 42.166 12.945 42.702ZM9.548 28.037C7.495 28.431 5.74 29.468 4.62 31.042 3.948 30.505 2.717 29.468 2.567 29.075.775 25.927 4.471 19.667 7.084 16.234 13.355 7.613 23.322 1.068 27.839 2.212 28.66 2.463 31.124 5.217 31.124 5.217 31.124 5.217 26.495 7.721 22.239 11.119 16.491 15.196 12.123 21.349 9.548 28.037ZM41.762 41.379 41.912 41.236C41.912 41.093 41.762 41.093 41.762 41.093 41.762 41.093 36.984 41.737 32.467 40.163 33.027 38.589 34.259 39.126 36.275 39.376 39.821 39.626 43.106 39.126 45.42 38.446 47.474 37.909 50.199 36.729 52.252 35.191 52.923 36.622 53.222 38.339 53.222 38.339 53.222 38.339 53.782 38.196 54.193 38.482 54.603 38.732 54.865 39.269 54.753 40.592 54.342 43.203 53.11 45.17 51.356 47.138 50.273 48.318 48.743 49.355 47.138 50.142 46.316 50.536 45.346 50.929 44.413 51.18 37.022 53.397 29.668 51.036 27.353 45.671 27.204 45.278 26.943 44.884 26.943 44.348 25.972 40.807 26.794 36.622 29.556 34.011 29.705 33.868 29.817 33.617 29.817 33.367 29.817 33.116 29.668 32.973 29.556 32.83 28.585 31.507 25.338 29.289 26.01 24.961 26.42 21.814 29.295 19.739 31.87 19.846H32.542C33.625 19.846 34.744 20.097 35.528 20.097 37.022 20.097 38.515 19.954 40.157 18.666 40.717 18.272 41.128 17.879 41.949 17.736 42.098 17.736 42.21 17.593 42.621 17.736 43.031 17.736 43.442 17.879 43.703 18.129 45.084 19.059 45.196 20.991 45.346 22.565 45.346 23.495 45.495 25.569 45.495 26.106 45.644 27.429 45.906 27.68 46.727 27.93 47.138 28.073 47.548 28.18 48.108 28.323 49.9 28.86 50.982 29.253 51.654 29.897 52.065 30.291 52.214 30.684 52.326 31.078 52.588 32.508 51.094 34.333 47.399 36.049 43.293 37.874 38.515 38.267 35.118 37.874L33.886 37.731C31.161 37.337 29.668 40.735 31.273 42.953 32.355 44.384 35.23 45.457 37.955 45.457 44.525 45.457 49.564 42.845 51.356 40.485L51.505 40.234C51.654 40.091 51.505 39.984 51.356 40.091 49.863 41.129 43.031 45.063 35.79 43.883 35.79 43.883 34.968 43.74 34.147 43.489 33.475 43.239 32.243 42.702 31.945 41.379 38.067 43.096 41.762 41.379 41.762 41.379ZM21.269 16.269C23.471 13.766 26.308 11.548 28.772 10.368 28.921 10.368 28.921 10.368 28.921 10.511 28.772 10.904 28.361 11.548 28.249 12.084 28.249 12.228 28.399 12.228 28.399 12.228 29.892 11.19 32.617 10.117 34.968 10.01 35.118 10.01 35.118 10.153 35.118 10.153 34.707 10.403 34.446 10.797 34.035 11.19 34.035 11.19 34.035 11.333 34.185 11.333 35.827 11.333 38.141 11.87 39.635 12.764 39.784 12.764 39.635 13.014 39.485 13.014 37.171 12.478 33.475 12.084 29.519 13.014 25.972 13.801 23.359 15.125 21.456 16.412 21.269 16.377 21.157 16.377 21.269 16.269ZM216.721 22.135C213.324 22.135 211.794 24.496 211.122 25.927 210.711 26.857 210.711 27.107 210.45 27.107 210.039 27.107 210.3 26.32 210.599 25.533 211.01 23.817 210.748 22.529 210.748 22.529H205.97V44.527H212.54V37.587C213.361 38.911 214.743 40.199 216.908 40.199 221.686 40.199 224 36.407 224 31.185 223.963 25.283 221.088 22.135 216.721 22.135ZM214.967 36.014C213.473 36.014 212.354 34.189 212.354 31.686 212.354 29.182 213.436 27.358 214.967 27.358 216.758 27.358 217.58 28.931 217.58 31.686 217.542 34.583 216.87 36.014 214.967 36.014ZM86.855 22.135C83.981 22.135 82.637 24.353 81.928 25.677 81.517 26.463 81.517 27.107 81.106 27.107 80.696 27.107 80.957 26.571 80.696 25.39 80.285 23.817 78.904 22.135 76.067 22.135 73.081 22.135 71.7 24.639 71.14 25.927 70.729 26.857 70.729 27.107 70.468 27.107 70.057 27.107 70.319 26.32 70.617 25.533 71.028 23.817 70.766 22.529 70.766 22.529H65.988V39.805H72.409V31.185C72.409 29.468 73.081 27.393 74.462 27.393 75.955 27.393 76.254 28.431 76.254 30.398V39.805H82.824V31.185C82.824 29.611 83.495 27.393 84.877 27.393 86.37 27.393 86.668 28.967 86.668 30.398V39.698H92.94V29.504C92.865 25.033 91.223 22.135 86.855 22.135ZM197.758 22.135C194.884 22.135 193.54 24.353 192.831 25.677 192.42 26.463 192.42 27.107 192.009 27.107 191.599 27.107 191.86 26.463 191.599 25.39 191.039 23.817 189.956 22.135 186.97 22.135 183.984 22.135 182.603 24.639 182.043 25.927 181.632 26.857 181.632 27.107 181.371 27.107 180.96 27.107 181.222 26.32 181.52 25.533 181.931 23.817 181.669 22.529 181.669 22.529H176.891V39.805H183.461V31.185C183.461 29.468 184.133 27.393 185.514 27.393 187.007 27.393 187.306 28.431 187.306 30.398V39.805H193.876V31.185C193.876 29.611 194.548 27.393 195.929 27.393 197.422 27.393 197.721 28.967 197.721 30.398V39.698H204.141V29.504C203.768 25.033 202.125 22.135 197.758 22.135ZM104.063 22.135C99.024 22.135 95.441 23.852 95.441 23.852V29.075C95.441 29.075 99.397 26.857 102.682 26.857 105.295 26.857 105.557 28.18 105.407 29.361 105.407 29.361 104.735 29.218 102.421 29.218 97.083 29.218 94.358 31.578 94.358 35.227 94.358 38.768 97.344 40.199 99.957 40.199 103.653 40.199 105.295 37.838 105.818 36.658 106.229 35.871 106.229 35.334 106.49 35.334 106.9 35.334 106.751 35.728 106.751 36.514 106.751 37.838 106.751 38.875 107.012 39.769H111.977V31.256C111.828 25.927 109.924 22.135 104.063 22.135ZM102.421 35.763C100.928 36.157 100.107 35.62 100.107 34.726 100.107 33.403 101.6 32.759 103.653 32.759 104.623 32.759 105.445 32.902 105.445 32.902 105.407 33.403 104.063 35.37 102.421 35.763ZM122.616 17.307H129.186V39.805H122.616C122.616 39.698 122.616 17.307 122.616 17.307ZM136.427 31.185C136.427 29.611 137.92 28.18 140.645 28.18 143.632 28.18 146.095 29.611 146.655 29.897V23.852C146.655 23.852 144.752 22.135 140.085 22.135 135.158 22.135 131.089 24.89 131.089 30.899 131.089 36.908 134.785 40.199 140.085 40.199 144.192 40.199 146.767 37.981 146.767 37.981V32.222C145.946 32.616 143.781 34.046 140.757 34.046 137.51 34.189 136.427 32.759 136.427 31.185ZM159.907 22.135C156.099 22.135 154.718 25.533 154.457 26.177 154.196 26.821 154.046 27.107 153.785 27.107 153.374 27.107 153.636 26.32 153.785 25.927 154.046 24.997 154.756 22.779 154.756 19.918 154.756 17.951 154.494 17.307 154.494 17.307H148.895V39.805H155.465V31.185C155.465 29.754 156.025 27.393 157.667 27.393 159.048 27.393 159.459 28.323 159.459 30.255V39.805H166.029V30.648C165.768 26.213 165.096 22.135 159.907 22.135ZM167.97 22.529V39.805H174.54V22.529C174.54 22.529 173.457 23.173 171.255 23.173 169.052 23.065 167.97 22.529 167.97 22.529ZM171.255 22.028C173.44 22.028 175.212 20.907 175.212 19.524 175.212 18.142 173.44 17.021 171.255 17.021 169.07 17.021 167.298 18.142 167.298 19.524 167.298 20.907 169.07 22.028 171.255 22.028ZM114.03 22.529V39.805H120.562V22.529C120.562 22.529 119.48 23.173 117.277 23.173 117.277 23.065 114.03 22.529 114.03 22.529ZM117.278 22.028C119.463 22.028 121.235 20.907 121.235 19.524 121.235 18.142 119.463 17.021 117.278 17.021 115.093 17.021 113.321 18.142 113.321 19.524 113.321 20.907 115.093 22.028 117.278 22.028Z"/></g></svg>