<svg xmlns="http://www.w3.org/2000/svg" width="621px" height="126px" viewBox="0 0 621 126"><title>Group Copy + Physitrack Copy + ® copy</title><g id="Page-1" fill="none" fill-rule="evenodd" stroke="none" stroke-width="1"><g id="Artboard-1" fill="#32b199" transform="translate(-1076 -629)"><g id="Group-Copy-+-Physitrack-Copy-+-®-copy" transform="translate(1075 629)"><g id="Group-Copy" transform="translate(.478)"><path id="Fill-17-Copy" d="M62.3940541,98.8750799 L33.929461,98.8750799 L33.929461,0.458016313 L62.3940541,0.458016313 L62.3940541,98.8750799 Z"/><path id="Fill-18-Copy" d="M0.72568095,64.4321356 L62.3940541,64.4321356 L62.3940541,34.9050763 L0.72568095,34.9050763 L0.72568095,64.4321356 Z"/><path id="Fill-19-Copy" d="M72.0032913,49.7283421 L62.2857476,64.3448832 L52.7796028,64.3448832 L61.2191188,49.7118794 L52.7796028,35.1100371 L62.2857476,35.1100371 L72.0032913,49.7283421 Z M56.1920214,49.7118794 L46.5028154,64.3448832 L36.9666326,64.3448832 L45.4061487,49.7283421 L36.9666326,35.1100371 L46.5028154,35.1100371 L56.1920214,49.7118794 Z"/><path id="Fill-20-Copy" d="M103.123745,49.7283421 L93.4062011,64.3448832 L83.9006229,64.3448832 L92.340139,49.7118794 L83.9006229,35.1100371 L93.4062011,35.1100371 L103.123745,49.7283421 Z M87.3130416,49.7118794 L77.6244023,64.3448832 L68.0876528,64.3448832 L76.5271689,49.7283421 L68.0876528,35.1100371 L77.6244023,35.1100371 L87.3130416,49.7118794 Z"/></g><path id="Physitrack-Copy" d="M123.968,97.882 L130.8,97.882 L130.8,61.93 C133.712,62.714 136.96,62.826 140.544,62.826 C154.208,62.826 171.232,56.778 171.232,36.17 C171.232,28.554 168.32,12.202 142.224,12.202 C134.832,12.202 128.784,12.986 123.968,13.882 L123.968,97.882 Z M130.8,18.922 C133.04,18.362 136.96,17.914 142.112,17.914 C154.432,17.914 164.288,23.29 164.288,36.842 C164.288,49.946 155.44,57.114 140.88,57.114 C136.96,57.114 133.488,56.89 130.8,55.994 L130.8,18.922 Z M231.888,61.034 C231.888,39.194 217.44,35.834 211.168,35.834 C202.656,35.834 194.704,40.986 191.344,47.482 L191.12,47.482 L191.12,8.394 L184.176,8.394 L184.176,97.882 L191.12,97.882 L191.12,60.586 C191.12,58.234 191.232,56.666 191.904,54.874 C194.256,47.706 201.2,41.77 209.264,41.77 C221.024,41.77 224.944,51.29 224.944,61.818 L224.944,97.882 L231.888,97.882 L231.888,61.034 Z M285.264,37.29 L271.376,75.818 C269.696,80.634 268.128,85.338 267.008,89.034 L266.784,89.034 C265.664,85.226 264.096,80.298 262.528,76.042 L247.52,37.29 L240.128,37.29 L262.08,93.402 C262.528,94.634 262.752,95.418 262.752,95.978 C262.752,97.77 256.48,114.458 242.032,119.834 L244.16,125.658 C260.064,120.394 267.008,103.258 275.408,81.418 L292.656,37.29 L285.264,37.29 Z M330.912,39.642 C327.664,37.514 322.96,35.834 317.36,35.834 C305.6,35.834 298.432,43.562 298.432,52.522 C298.432,59.802 303.92,65.29 313.776,69.21 C322.288,72.682 325.984,76.154 325.984,82.426 C325.984,88.586 321.616,93.514 312.544,93.514 C307.168,93.514 302.24,91.274 299.104,89.37 L296.752,94.97 C300.784,97.434 306.272,99.114 312.208,99.114 C324.304,99.114 332.816,92.618 332.816,81.53 C332.816,72.458 326.992,67.53 317.248,63.61 C309.184,60.138 305.264,57.562 305.264,51.514 C305.264,46.138 309.184,41.434 316.576,41.434 C322.288,41.434 326.208,43.674 328.336,45.13 L330.912,39.642 Z M354.272,20.042 C354.272,17.018 352.256,14.554 349.12,14.554 C346.096,14.554 343.856,17.13 343.856,20.042 C343.856,23.066 345.984,25.642 349.008,25.642 C352.032,25.642 354.272,23.402 354.272,20.042 L354.272,20.042 Z M352.48,37.29 L345.536,37.29 L345.536,97.882 L352.48,97.882 L352.48,37.29 Z M370.8,36.17 L362.064,36.17 L362.064,45.914 L370.8,45.914 L370.8,77.834 C370.8,85.898 372.256,91.05 375.392,94.41 C378.08,97.434 382.448,99.114 387.6,99.114 C391.968,99.114 395.44,98.554 397.68,97.658 L397.232,87.69 C395.664,88.138 394.096,88.474 391.52,88.474 C386.032,88.474 383.68,84.778 383.68,77.162 L383.68,45.914 L398.352,45.914 L398.352,36.17 L383.68,36.17 L383.68,20.938 L370.8,24.97 L370.8,36.17 Z M438.175999,35.162 C437.055999,34.938 436.159999,34.826 434.927999,34.826 C428.207999,34.826 421.711999,39.642 418.911999,47.482 L418.463999,47.482 L418.015999,36.17 L406.703999,36.17 C407.039999,41.882 407.151999,47.818 407.151999,54.986 L407.151999,97.882 L420.143999,97.882 L420.143999,65.178 C420.143999,54.426 425.631999,47.258 434.367999,47.258 C435.823999,47.258 437.055999,47.37 438.175999,47.594 L438.175999,35.162 Z M489.087999,59.914 C489.087999,46.81 484.047999,34.826 465.903999,34.826 C457.615999,34.826 450.335999,37.178 445.967999,39.978 L448.655999,48.602 C452.575999,46.026 458.175999,44.346 463.663999,44.346 C476.095999,44.346 476.095999,53.53 476.095999,58.122 C454.927999,58.122 441.599999,65.738 441.599999,81.082 C441.599999,90.602 448.207999,99.114 459.743999,99.114 C467.471999,99.114 473.519999,95.53 476.991999,90.714 L477.327999,90.714 L478.223999,97.882 L489.983999,97.882 C489.199999,93.85 489.087999,88.474 489.087999,83.21 L489.087999,59.914 Z M476.431999,77.05 C476.431999,84.218 470.607999,89.594 463.551999,89.594 C458.735999,89.594 454.479999,86.57 454.479999,79.738 C454.479999,68.762 466.239999,66.858 476.431999,66.858 L476.431999,77.05 Z M542.799999,86.234 C539.887999,87.466 536.303999,88.698 531.151999,88.698 C520.399999,88.698 512.447999,80.634 512.447999,67.082 C512.447999,54.986 519.167999,45.13 531.263999,45.13 C536.527999,45.13 540.111999,46.474 542.351999,47.594 L544.927999,37.626 C542.239999,36.282 537.087999,34.826 531.151999,34.826 C511.327999,34.826 499.231999,48.938 499.231999,67.642 C499.231999,86.906 510.879999,99.114 528.687999,99.114 C535.855999,99.114 541.679999,97.322 544.591999,95.978 L542.799999,86.234 Z M580.719999,61.594 L602.447999,36.17 L587.103999,36.17 L571.759999,56.778 C570.191999,58.906 568.511999,61.594 567.055999,63.946 L566.831999,63.946 L566.831999,8.058 L553.839999,8.058 L553.839999,97.882 L566.831999,97.882 L566.831999,75.706 L571.871999,69.546 L589.567999,97.882 L605.247999,97.882 L580.719999,61.594 Z"/><path id="®-copy" d="M608.476,42.678 C608.476,46.35 611.392,49.23 615.064,49.23 C618.808,49.23 621.688,46.35 621.688,42.678 C621.688,39.078 618.808,36.234 615.064,36.234 C611.464,36.234 608.476,39.006 608.476,42.678 L608.476,42.678 Z M609.88,42.678 C609.88,39.798 612.148,37.386 615.064,37.386 C618.016,37.386 620.212,39.798 620.212,42.714 C620.212,45.666 618.016,48.042 615.1,48.042 C612.4,48.042 609.88,45.882 609.88,42.678 L609.88,42.678 Z M613.948,46.17 L613.948,43.362 C615.388,43.362 616,43.362 616.252,44.442 C616.432,45.342 616.576,45.918 616.792,46.17 L618.16,46.17 C617.98,45.918 617.836,45.522 617.62,44.514 C617.44,43.614 617.116,43.074 616.504,42.858 L616.504,42.75 C617.224,42.534 617.836,42.03 617.836,41.202 C617.836,40.05 616.972,39.258 614.992,39.258 C614.056,39.258 613.3,39.366 612.652,39.474 L612.652,46.17 L613.948,46.17 Z M613.948,40.338 C614.128,40.302 614.416,40.266 614.884,40.266 C616.036,40.266 616.468,40.734 616.468,41.346 C616.468,42.39 615.172,42.39 613.948,42.39 L613.948,40.338 Z"/></g></g></g></svg>