<svg xmlns="http://www.w3.org/2000/svg" width="18" height="18" fill="none" viewBox="0 0 18 18"><path fill="url(#paint0_linear_275_1148)" d="M11.8798 14.7518C11.9327 15.0423 12.0977 15.1875 12.375 15.1875C12.6391 15.1875 12.7975 15.0423 12.8504 14.7518C13.022 13.8011 13.1805 13.055 13.3257 12.5136C13.471 11.9591 13.6822 11.5365 13.9595 11.246C14.2368 10.9555 14.6527 10.7311 15.2073 10.5726C15.7751 10.401 16.5541 10.2293 17.5445 10.0577C17.8482 10.0048 18 9.83979 18 9.5625C18 9.28521 17.8482 9.12016 17.5445 9.06734C16.5541 8.89569 15.7751 8.73063 15.2073 8.57218C14.6527 8.41373 14.2368 8.18926 13.9595 7.89877C13.6822 7.59507 13.471 7.17254 13.3257 6.63116C13.1805 6.07658 13.022 5.33055 12.8504 4.39305C12.7975 4.08935 12.6391 3.9375 12.375 3.9375C12.0977 3.9375 11.9327 4.08935 11.8798 4.39305C11.7082 5.33055 11.5497 6.07658 11.4045 6.63116C11.2592 7.17254 11.048 7.59507 10.7707 7.89877C10.4934 8.18926 10.0775 8.41373 9.52289 8.57218C8.96831 8.73063 8.19586 8.89569 7.20555 9.06734C7.0735 9.09375 6.96127 9.15317 6.86884 9.2456C6.78961 9.32482 6.75 9.43046 6.75 9.5625C6.75 9.83979 6.90185 10.0048 7.20555 10.0577C8.19586 10.2293 8.96831 10.401 9.52289 10.5726C10.0775 10.7311 10.4934 10.9555 10.7707 11.246C11.048 11.5365 11.2592 11.9591 11.4045 12.5136C11.5497 13.055 11.7082 13.8011 11.8798 14.7518Z"/><path fill="url(#paint1_linear_275_1148)" d="M6.50242 17.7821C6.52883 17.9274 6.61136 18 6.75 18C6.88204 18 6.96127 17.9274 6.98768 17.7821C7.0735 17.3068 7.15273 16.9338 7.22535 16.6631C7.29798 16.3858 7.40361 16.1745 7.54225 16.0293C7.6809 15.884 7.88886 15.7718 8.16615 15.6926C8.45004 15.6067 8.83957 15.5209 9.33473 15.4351C9.48658 15.4087 9.5625 15.3261 9.5625 15.1875C9.5625 15.0489 9.48658 14.9663 9.33473 14.9399C8.83957 14.8541 8.45004 14.7716 8.16615 14.6923C7.88886 14.6131 7.6809 14.5009 7.54225 14.3556C7.40361 14.2038 7.29798 13.9925 7.22535 13.7218C7.15273 13.4445 7.0735 13.0715 6.98768 12.6028C6.96127 12.4509 6.88204 12.375 6.75 12.375C6.61136 12.375 6.52883 12.4509 6.50242 12.6028C6.41659 13.0715 6.33737 13.4445 6.26474 13.7218C6.19212 13.9925 6.08649 14.2038 5.94784 14.3556C5.8092 14.5009 5.60123 14.6131 5.32394 14.6923C5.04665 14.7716 4.66043 14.8541 4.16527 14.9399C4.09925 14.9531 4.04313 14.9828 3.99692 15.029C3.95731 15.0687 3.9375 15.1215 3.9375 15.1875C3.9375 15.3261 4.01342 15.4087 4.16527 15.4351C4.66043 15.5209 5.04665 15.6067 5.32394 15.6926C5.60123 15.7718 5.8092 15.884 5.94784 16.0293C6.08649 16.1745 6.19212 16.3858 6.26474 16.6631C6.33737 16.9338 6.41659 17.3068 6.50242 17.7821Z"/><path fill="url(#paint2_linear_275_1148)" d="M3.84738 8.1107C3.88699 8.32856 4.01078 8.4375 4.21875 8.4375C4.41681 8.4375 4.53565 8.32856 4.57526 8.1107C4.70401 7.39767 4.82284 6.83814 4.93178 6.43211C5.04071 6.01617 5.19916 5.69927 5.40713 5.4814C5.6151 5.26353 5.92705 5.09518 6.34298 4.97634C6.76882 4.8476 7.3531 4.71886 8.09584 4.59012C8.32361 4.55051 8.4375 4.42672 8.4375 4.21875C8.4375 4.01078 8.32361 3.88699 8.09584 3.84738C7.3531 3.71864 6.76882 3.59485 6.34298 3.47601C5.92705 3.35717 5.6151 3.18882 5.40713 2.97095C5.19916 2.74318 5.04071 2.42628 4.93178 2.02025C4.82284 1.60431 4.70401 1.04478 4.57526 0.341659C4.53565 0.113886 4.41681 0 4.21875 0C4.01078 0 3.88699 0.113886 3.84738 0.341659C3.71864 1.04478 3.5998 1.60431 3.49087 2.02025C3.38193 2.42628 3.22348 2.74318 3.01551 2.97095C2.80755 3.18882 2.4956 3.35717 2.07967 3.47601C1.66373 3.59485 1.0844 3.71864 0.341659 3.84738C0.242628 3.86719 0.158451 3.91175 0.0891285 3.98107C0.0297095 4.04049 0 4.11972 0 4.21875C0 4.42672 0.113886 4.55051 0.341659 4.59012C1.0844 4.71886 1.66373 4.8476 2.07967 4.97634C2.4956 5.09518 2.80755 5.26353 3.01551 5.4814C3.22348 5.69927 3.38193 6.01617 3.49087 6.43211C3.5998 6.83814 3.71864 7.39767 3.84738 8.1107Z"/><defs><linearGradient id="paint0_linear_275_1148" x1="-9.78325e-08" x2="15.75" y1="10.4062" y2="10.6875" gradientUnits="userSpaceOnUse"><stop stop-color="#8250ff"/><stop offset="1" stop-color="#f3acfa"/></linearGradient><linearGradient id="paint1_linear_275_1148" x1="-9.78325e-08" x2="15.75" y1="10.4062" y2="10.6875" gradientUnits="userSpaceOnUse"><stop stop-color="#8250ff"/><stop offset="1" stop-color="#f3acfa"/></linearGradient><linearGradient id="paint2_linear_275_1148" x1="-9.78325e-08" x2="15.75" y1="10.4062" y2="10.6875" gradientUnits="userSpaceOnUse"><stop stop-color="#8250ff"/><stop offset="1" stop-color="#f3acfa"/></linearGradient></defs></svg>